# ProBuilder 4.0.5
# https://unity3d.com/unity/features/worldbuilding/probuilder
# 7/24/2019 12:26:04 PM

mtllib ./Cone.mtl
o Cone

g Cone
v -0.1500001 0 0
v -0.1471179 0 0.02926355
v -8.940697E-08 0.5 0
v -8.940697E-08 0 0
v -0.138582 0 0.05740252
v -0.1247205 0 0.08333554
v -0.1060661 0 0.106066
v -0.08333563 0 0.1247204
v -0.05740261 0 0.1385819
v -0.02926365 0 0.1471178
v -8.940697E-08 0 0.15
v 0.02926347 0 0.1471178
v 0.05740242 0 0.1385819
v 0.08333544 0 0.1247205
v 0.1060659 0 0.106066
v 0.1247204 0 0.08333553
v 0.1385818 0 0.05740253
v 0.1471177 0 0.02926355
v 0.1499999 0 -1.311342E-08
v 0.1471177 0 -0.02926354
v 0.1385818 0 -0.05740252
v 0.1247203 0 -0.08333555
v 0.1060659 0 -0.106066
v 0.08333547 0 -0.1247204
v 0.05740245 0 -0.1385819
v 0.02926347 0 -0.1471178
v -8.940697E-08 0 -0.15
v -0.02926365 0 -0.1471178
v -0.05740263 0 -0.1385819
v -0.0833356 0 -0.1247205
v -0.1060661 0 -0.106066
v -0.1247205 0 -0.08333555
v -0.138582 0 -0.05740252
v -0.1471179 0 -0.02926354

vt -0.0147026 -0.2822567
vt 0.01470254 -0.2822567
vt -8.763428E-09 0.2395516
vt -0.1500001 0
vt -0.1471179 0.02926355
vt -8.940697E-08 0
vt -0.138582 0.05740252
vt -0.1247205 0.08333554
vt -0.1060661 0.106066
vt -0.08333563 0.1247204
vt -0.05740261 0.1385819
vt -0.02926365 0.1471178
vt -8.940697E-08 0.15
vt 0.02926347 0.1471178
vt 0.05740242 0.1385819
vt 0.08333544 0.1247205
vt 0.1060659 0.106066
vt 0.1247204 0.08333553
vt 0.1385818 0.05740253
vt 0.1471177 0.02926355
vt 0.1499999 -1.311342E-08
vt 0.1471177 -0.02926354
vt 0.1385818 -0.05740252
vt 0.1247203 -0.08333555
vt 0.1060659 -0.106066
vt 0.08333547 -0.1247204
vt 0.05740245 -0.1385819
vt 0.02926347 -0.1471178
vt -8.940697E-08 -0.15
vt -0.02926365 -0.1471178
vt -0.05740263 -0.1385819
vt -0.0833356 -0.1247205
vt -0.1060661 -0.106066
vt -0.1247205 -0.08333555
vt -0.138582 -0.05740252
vt -0.1471179 -0.02926354

vn -0.9535924 0.2860777 0.09392079
vn 0 -1 0
vn -0.9169464 0.2860777 0.2781526
vn -0.8450627 0.2860778 0.4516953
vn -0.7407034 0.2860777 0.6078799
vn -0.6078799 0.2860777 0.7407034
vn -0.4516953 0.2860778 0.8450627
vn -0.2781526 0.2860777 0.9169464
vn -0.09392077 0.2860777 0.9535924
vn 0.09392077 0.2860777 0.9535924
vn 0.2781523 0.2860777 0.9169465
vn 0.4516954 0.2860777 0.8450626
vn 0.6078799 0.2860777 0.7407035
vn 0.7407035 0.2860777 0.6078799
vn 0.8450627 0.2860777 0.4516953
vn 0.9169461 0.2860777 0.2781534
vn 0.9535925 0.2860778 0.09391981
vn 0.9535925 0.2860777 -0.0939199
vn 0.9169461 0.2860777 -0.2781534
vn 0.8450624 0.2860777 -0.4516957
vn 0.7407036 0.2860777 -0.6078797
vn 0.6078799 0.2860777 -0.7407034
vn 0.4516958 0.2860777 -0.8450624
vn 0.2781525 0.2860777 -0.9169464
vn 0.09392077 0.2860777 -0.9535924
vn -0.09392075 0.2860777 -0.9535924
vn -0.278153 0.2860777 -0.9169463
vn -0.4516952 0.2860777 -0.8450627
vn -0.6078795 0.2860777 -0.7407038
vn -0.7407034 0.2860777 -0.6078799
vn -0.8450626 0.2860777 -0.4516955
vn -0.9169464 0.2860777 -0.2781525
vn -0.9535924 0.2860777 -0.09392036

g Cone
usemtl Spike
f 1/1/1 2/2/1 3/3/1
f 4/6/2 2/5/2 1/4/2
f 2/1/3 5/2/3 3/3/3
f 4/6/2 5/7/2 2/5/2
f 5/1/4 6/2/4 3/3/4
f 4/6/2 6/8/2 5/7/2
f 6/1/5 7/2/5 3/3/5
f 4/6/2 7/9/2 6/8/2
f 7/1/6 8/2/6 3/3/6
f 4/6/2 8/10/2 7/9/2
f 8/1/7 9/2/7 3/3/7
f 4/6/2 9/11/2 8/10/2
f 9/1/8 10/2/8 3/3/8
f 4/6/2 10/12/2 9/11/2
f 10/1/9 11/2/9 3/3/9
f 4/6/2 11/13/2 10/12/2
f 11/1/10 12/2/10 3/3/10
f 4/6/2 12/14/2 11/13/2
f 12/1/11 13/2/11 3/3/11
f 4/6/2 13/15/2 12/14/2
f 13/1/12 14/2/12 3/3/12
f 4/6/2 14/16/2 13/15/2
f 14/1/13 15/2/13 3/3/13
f 4/6/2 15/17/2 14/16/2
f 15/1/14 16/2/14 3/3/14
f 4/6/2 16/18/2 15/17/2
f 16/1/15 17/2/15 3/3/15
f 4/6/2 17/19/2 16/18/2
f 17/1/16 18/2/16 3/3/16
f 4/6/2 18/20/2 17/19/2
f 18/1/17 19/2/17 3/3/17
f 4/6/2 19/21/2 18/20/2
f 19/1/18 20/2/18 3/3/18
f 4/6/2 20/22/2 19/21/2
f 20/1/19 21/2/19 3/3/19
f 4/6/2 21/23/2 20/22/2
f 21/1/20 22/2/20 3/3/20
f 4/6/2 22/24/2 21/23/2
f 22/1/21 23/2/21 3/3/21
f 4/6/2 23/25/2 22/24/2
f 23/1/22 24/2/22 3/3/22
f 4/6/2 24/26/2 23/25/2
f 24/1/23 25/2/23 3/3/23
f 4/6/2 25/27/2 24/26/2
f 25/1/24 26/2/24 3/3/24
f 4/6/2 26/28/2 25/27/2
f 26/1/25 27/2/25 3/3/25
f 4/6/2 27/29/2 26/28/2
f 27/1/26 28/2/26 3/3/26
f 4/6/2 28/30/2 27/29/2
f 28/1/27 29/2/27 3/3/27
f 4/6/2 29/31/2 28/30/2
f 29/1/28 30/2/28 3/3/28
f 4/6/2 30/32/2 29/31/2
f 30/1/29 31/2/29 3/3/29
f 4/6/2 31/33/2 30/32/2
f 31/1/30 32/2/30 3/3/30
f 4/6/2 32/34/2 31/33/2
f 32/1/31 33/2/31 3/3/31
f 4/6/2 33/35/2 32/34/2
f 33/1/32 34/2/32 3/3/32
f 4/6/2 34/36/2 33/35/2
f 34/1/33 1/2/33 3/3/33
f 4/6/2 1/4/2 34/36/2

