# ProBuilder 4.0.5
# https://unity3d.com/unity/features/worldbuilding/probuilder
# 7/15/2019 12:23:53 PM

mtllib ./RoundedBox.mtl
o RoundedBox

g RoundedBox
v -0.4 -0.5 0.4
v -0.4625 -0.4625 0.4625
v -0.4 -0.475 0.475
v -0.475 -0.475 0.4
v 0.4 -0.475 0.475
v -0.4 -0.5 -0.4
v -0.475 -0.475 -0.4
v -0.4625 -0.4625 -0.4625
v -0.4 -0.475 -0.475
v 0.4 -0.5 -0.4
v 0.4 -0.475 -0.475
v 0.4625 -0.4625 -0.4625
v 0.475 -0.475 -0.4
v 0.4 -0.5 0.4
v 0.4625 -0.4625 0.4625
v 0.475 -0.475 0.4
v -0.4 0.5 0.4
v -0.4625 0.4625 0.4625
v -0.475 0.475 0.4
v -0.4 0.475 0.475
v -0.475 0.475 -0.4
v 0.4 0.5 0.4
v 0.4 0.475 0.475
v 0.4625 0.4625 0.4625
v 0.475 0.475 0.4
v 0.4 0.5 -0.4
v 0.475 0.475 -0.4
v 0.4625 0.4625 -0.4625
v 0.4 0.475 -0.475
v -0.4 0.5 -0.4
v -0.4625 0.4625 -0.4625
v -0.4 0.475 -0.475
v -0.4 -0.4 0.5
v -0.475 -0.4 0.475
v -0.475 0.4 0.475
v 0.4 -0.4 0.5
v 0.475 -0.4 0.475
v 0.4 0.4 0.5
v 0.475 0.4 0.475
v -0.4 0.4 0.5
v 0.5 0.4 -0.4
v 0.475 0.4 -0.475
v 0.475 -0.4 -0.475
v 0.5 0.4 0.4
v 0.5 -0.4 0.4
v 0.5 -0.4 -0.4
v -0.4 0.4 -0.5
v -0.475 0.4 -0.475
v -0.475 -0.4 -0.475
v 0.4 0.4 -0.5
v 0.4 -0.4 -0.5
v -0.4 -0.4 -0.5
v -0.5 -0.4 -0.4
v -0.5 -0.4 0.4
v -0.5 0.4 0.4
v -0.5 0.4 -0.4

vt 0.9 0.1
vt 1 0
vt 0.9 0
vt 1 0.1
vt 0.1 0
vt 0.9 0.9
vt 1 0.9
vt 1 1
vt 0.9 1
vt 0.1 0.9
vt 0.1 1
vt 0 1
vt 0 0.9
vt 0.1 0.1
vt 0 0
vt 0 0.1

vn -0.1515258 -0.9767702 0.1515258
vn -0.5773503 -0.5773503 0.5773503
vn -0.137898 -0.7003514 0.7003514
vn -0.7003514 -0.7003514 0.137898
vn 0.137898 -0.7003514 0.7003514
vn -0.1515258 -0.9767702 -0.1515258
vn -0.7003514 -0.7003514 -0.137898
vn -0.5773503 -0.5773503 -0.5773503
vn -0.137898 -0.7003514 -0.7003514
vn 0.1515258 -0.9767702 -0.1515258
vn 0.137898 -0.7003514 -0.7003514
vn 0.5773503 -0.5773503 -0.5773503
vn 0.7003514 -0.7003514 -0.137898
vn 0.1515258 -0.9767702 0.1515258
vn 0.5773503 -0.5773503 0.5773503
vn 0.7003514 -0.7003514 0.137898
vn -0.1515257 0.9767702 0.1515257
vn -0.5773504 0.5773501 0.5773504
vn -0.7003514 0.7003514 0.1378983
vn -0.1378983 0.7003514 0.7003514
vn -0.7003514 0.7003514 -0.1378983
vn 0.1515257 0.9767702 0.1515257
vn 0.1378983 0.7003514 0.7003514
vn 0.5773504 0.5773501 0.5773504
vn 0.7003514 0.7003514 0.1378983
vn 0.1515257 0.9767702 -0.1515257
vn 0.7003514 0.7003514 -0.1378983
vn 0.5773504 0.5773501 -0.5773504
vn 0.1378983 0.7003514 -0.7003514
vn -0.1515257 0.9767702 -0.1515257
vn -0.5773504 0.5773501 -0.5773504
vn -0.1378983 0.7003514 -0.7003514
vn -0.1515258 -0.1515258 0.9767702
vn -0.7003514 -0.137898 0.7003514
vn -0.7003514 0.137898 0.7003514
vn 0.1515258 -0.1515258 0.9767702
vn 0.7003514 -0.137898 0.7003514
vn 0.1515258 0.1515257 0.9767702
vn 0.7003514 0.137898 0.7003514
vn -0.1515258 0.1515257 0.9767702
vn 0.9767702 0.1515257 -0.1515258
vn 0.7003514 0.137898 -0.7003514
vn 0.7003514 -0.137898 -0.7003514
vn 0.9767702 0.1515256 0.1515258
vn 0.9767702 -0.1515258 0.1515258
vn 0.9767702 -0.1515258 -0.1515258
vn -0.1515258 0.1515257 -0.9767702
vn -0.7003514 0.137898 -0.7003514
vn -0.7003514 -0.137898 -0.7003514
vn 0.1515258 0.1515256 -0.9767702
vn 0.1515258 -0.1515258 -0.9767702
vn -0.1515258 -0.1515258 -0.9767702
vn -0.9767702 -0.1515258 -0.1515258
vn -0.9767702 -0.1515258 0.1515258
vn -0.9767702 0.1515257 0.1515258
vn -0.9767702 0.1515257 -0.1515258

g RoundedBox
usemtl Box001Mat
f 4/4/4 1/1/1 3/3/3 2/2/2
f 14/14/14 5/5/5 3/3/3 1/1/1
f 7/7/7 6/6/6 1/1/1 4/4/4
f 9/9/9 6/6/6 7/7/7 8/8/8
f 11/11/11 10/10/10 6/6/6 9/9/9
f 14/14/14 1/1/1 6/6/6 10/10/10
f 13/13/13 10/10/10 11/11/11 12/12/12
f 16/16/16 14/14/14 10/10/10 13/13/13
f 16/16/16 15/15/15 5/5/5 14/14/14
f 20/5/20 17/14/17 19/16/19 18/15/18
f 30/10/30 21/13/21 19/16/19 17/14/17
f 23/3/23 22/1/22 17/14/17 20/5/20
f 25/4/25 22/1/22 23/3/23 24/2/24
f 27/7/27 26/6/26 22/1/22 25/4/25
f 30/10/30 17/14/17 22/1/22 26/6/26
f 29/9/29 26/6/26 27/7/27 28/8/28
f 32/11/32 30/10/30 26/6/26 29/9/29
f 32/11/32 31/12/31 21/13/21 30/10/30
f 3/5/3 33/14/33 34/16/34 2/15/2
f 40/10/40 35/13/35 34/16/34 33/14/33
f 5/3/5 36/1/36 33/14/33 3/5/3
f 37/4/37 36/1/36 5/3/5 15/2/15
f 39/7/39 38/6/38 36/1/36 37/4/37
f 40/10/40 33/14/33 36/1/36 38/6/38
f 23/9/23 38/6/38 39/7/39 24/8/24
f 20/11/20 40/10/40 38/6/38 23/9/23
f 20/11/20 18/12/18 35/13/35 40/10/40
f 27/9/27 41/6/41 42/7/42 28/8/28
f 46/1/46 43/4/43 42/7/42 41/6/41
f 25/11/25 44/10/44 41/6/41 27/9/27
f 39/13/39 44/10/44 25/11/25 24/12/24
f 37/16/37 45/14/45 44/10/44 39/13/39
f 46/1/46 41/6/41 44/10/44 45/14/45
f 16/5/16 45/14/45 37/16/37 15/15/15
f 13/3/13 46/1/46 45/14/45 16/5/16
f 13/3/13 12/2/12 43/4/43 46/1/46
f 32/9/32 47/6/47 48/7/48 31/8/31
f 52/1/52 49/4/49 48/7/48 47/6/47
f 29/11/29 50/10/50 47/6/47 32/9/32
f 42/13/42 50/10/50 29/11/29 28/12/28
f 43/16/43 51/14/51 50/10/50 42/13/42
f 52/1/52 47/6/47 50/10/50 51/14/51
f 11/5/11 51/14/51 43/16/43 12/15/12
f 9/3/9 52/1/52 51/14/51 11/5/11
f 9/3/9 8/2/8 49/4/49 52/1/52
f 49/16/49 8/15/8 7/5/7 53/14/53
f 56/10/56 48/13/48 49/16/49 53/14/53
f 4/3/4 54/1/54 53/14/53 7/5/7
f 34/4/34 54/1/54 4/3/4 2/2/2
f 35/7/35 55/6/55 54/1/54 34/4/34
f 56/10/56 53/14/53 54/1/54 55/6/55
f 19/9/19 55/6/55 35/7/35 18/8/18
f 21/11/21 56/10/56 55/6/55 19/9/19
f 21/11/21 31/12/31 48/13/48 56/10/56

